<svg xmlns="http://www.w3.org/2000/svg" viewBox="0 0 24 24" fill="#CC342D">
  <path d="M20.156 11.204v.045a13.69 13.69 0 0 1-.093 1.61l-3.764 3.786 1.48-4.74-3.48.936 1.36-5.04-2.784 4.536-.612-5.352-2.556 5.64-.276-4.68-2.1 5.244L5.1 9.3l-.54 5.4-1.56 1.56L3.72 9.6 2.04 20.4l4.32 1.56L7.8 24l4.2-1.56L15 24l1.44-1.2 4.32-1.56-1.56-9.48-.044-.556zM12 0 9.264 2.184l-3.348-.588L4.8 4.8l-2.52 1.956.588 3.348L1.2 12l1.668 1.896-.588 3.348L4.8 19.2l1.116 3.216L9.264 21.816 12 24l2.736-2.184 3.348.588L19.2 19.2l2.52-1.956-.588-3.348L22.8 12l-1.668-1.896.588-3.348L19.2 4.8l-1.116-3.216L14.736 2.184Z"/>
</svg>
